PathFileType	4	(X/Y/Z)	RBDS021\RBDS021runT25.trc
DataRate	CameraRate	NumFrames	NumMarkers	Units	OrigDataRate	OrigDataStartFrame	OrigNumFrames
150.000000	150.000000	4	33	mm	150.000000	3375	4500
Frame#	Time	L.ASIS			L.Heel.Bottom			L.Heel.Lateral			L.Heel.Top			L.Iliac.Crest			L.MT1			L.MT5			L.PSIS			L.Shank.Bottom.Lateral			L.Shank.Bottom.Medial			L.Shank.Top.Lateral			L.Shank.Top.Medial			L.Thigh.Bottom.Lateral			L.Thigh.Bottom.Medial			L.Thigh.Top.Lateral			L.Thigh.Top.Medial			R.ASIS			R.ASY			R.Heel.Bottom			R.Heel.Lateral			R.Heel.Top			R.Iliac.Crest			R.MT1			R.MT5			R.PSIS			R.Shank.Bottom.Lateral			R.Shank.Bottom.Medial			R.Shank.Top.Lateral			R.Shank.Top.Medial			R.Thigh.Bottom.Lateral			R.Thigh.Bottom.Medial			R.Thigh.Top.Lateral			R.Thigh.Top.Medial			
		X1	Y1	Z1	X2	Y2	Z2	X3	Y3	Z3	X4	Y4	Z4	X5	Y5	Z5	X6	Y6	Z6	X7	Y7	Z7	X8	Y8	Z8	X9	Y9	Z9	X10	Y10	Z10	X11	Y11	Z11	X12	Y12	Z12	X13	Y13	Z13	X14	Y14	Z14	X15	Y15	Z15	X16	Y16	Z16	X17	Y17	Z17	X18	Y18	Z18	X19	Y19	Z19	X20	Y20	Z20	X21	Y21	Z21	X22	Y22	Z22	X23	Y23	Z23	X24	Y24	Z24	X25	Y25	Z25	X26	Y26	Z26	X27	Y27	Z27	X28	Y28	Z28	X29	Y29	Z29	X30	Y30	Z30	X31	Y31	Z31	X32	Y32	Z32	X33	Y33	Z33	

3376	22.5	1884.49139213814	944.9710101858566	855.3969674219486	1655.546990990471	39.85838150793117	983.5143241067149	1672.938058436739	56.70945293121542	931.3207377212257	1667.590574364223	85.57948498533707	977.5016067782211	1810.369286046524	1017.109752423039	812.1530585548662	1874.099264509242	41.93087343912205	965.0396034040115	1812.282347488015	35.12068151327799	865.0009635253094	1713.463226899202	982.8636507602353	946.5795734058955	1756.710516875758	164.8060361306595	886.2768787831866	1724.434580497966	188.6283015750577	924.9855000173537	1777.82448155329	238.0906355630287	860.2732193215967	1746.562474833733	261.8596744596627	897.3906722751996	1863.854748303238	595.2967223134334	795.6119785917261	1801.777914765602	586.7000220479132	829.6975981875441	1835.169272628425	699.5720896773852	774.6118100226515	1775.859461529655	691.9116339787887	807.8284976370543	1905.616056231537	916.2865412602337	1071.762529128526	1583.152138518405	267.8246247431129	1088.292791665875	1515.913829542058	426.3602415971723	1016.961413498104	1532.031040410315	416.3662280087627	1069.269396199959	1560.20806596881	423.8815772057261	1023.324974144136	1861.806183594989	985.1570677359938	1123.809954775428	1552.938661116194	218.2459344322266	1048.000466048857	1532.476244797747	272.5617858075174	1143.932641868715	1720.288627576614	971.5934601600924	1024.341915048916	1656.223059152351	414.2120747293818	1096.800577263693	1657.75949386179	432.8755047707835	1049.060642748753	1736.624065461777	440.00809669808	1106.862548912098	1732.917808672554	461.6659894376676	1058.562110134604	1925.317730709916	582.6953693574085	1136.170546876705	1867.300293815498	556.8150160732794	1099.672103858954	1874.353690945594	679.4546993953668	1143.42702831808	1819.837275104804	654.8833276496891	1106.747682088509	
3377	22.50666666666667	1883.832732286205	945.3359521910611	856.1750377602422	1638.729956172005	41.6106106527393	983.2396641222645	1656.155880140691	57.94351899168083	930.8725195110975	1651.086992027117	87.22928136216531	976.8447788629529	1810.202882474085	1019.073439396199	811.9307217496283	1856.915330246193	41.85490042090629	964.8260659767113	1795.14335434325	35.12330919286103	864.9131460960035	1712.163581267507	984.822640508011	945.3225752719216	1741.099464739322	165.9894612850898	885.8778421846464	1709.197800701007	190.2054008577657	924.6264887256386	1763.362017459634	238.9748770460369	859.9722625754774	1732.385073950016	263.1547663866023	897.1026694336093	1856.277528511571	595.3206310887202	795.4960001889696	1793.66233813399	587.9470275738971	828.9450198615328	1830.039117974492	700.2445088594183	774.5939841301658	1770.249318643094	693.7779628033478	807.2805553385499	1902.865701546212	918.3604566963307	1073.717678207666	1603.112854562003	261.8607270733159	1087.488579266768	1528.04864043825	419.4190952010856	1020.929411426077	1545.484697865751	408.8357198456746	1072.809718202001	1572.58142591574	418.6646639447832	1026.662346078058	1856.774531301585	987.7081969886299	1125.207454681959	1574.086163822152	212.201997898972	1045.953805416063	1552.870496004604	263.2675033285792	1143.793355871001	1718.250073175754	973.5696132894271	1023.001559657926	1670.645531986582	411.0396917111721	1097.876430322138	1670.86929683523	430.2653064134065	1050.369631634651	1750.368532765309	439.2441503221153	1107.064828106348	1745.133377779145	461.3031858489104	1059.073473428606	1933.504313590703	587.9943887110168	1134.939517900156	1876.149419809566	559.9958700505865	1098.81686834979	1878.945823504979	682.7126969553037	1142.643824523604	1824.848233397452	656.0443886560886	1106.561511834397	
3378	22.51333333333334	1883.296291551434	946.0186863940316	856.962453634899	1621.937195980779	43.62819040815173	982.9671143563691	1639.431922038152	59.44923456116186	930.4421746791168	1634.658441837809	89.12958890947034	976.2220093806999	1810.46830571884	1021.120901590117	811.7561171576534	1839.704663760772	41.8500390539586	964.6701999069008	1778.024092621453	35.22387238931895	864.8901938891684	1711.035499797379	987.1202163842969	944.1541303375806	1725.466142151957	167.448902544407	885.603483068644	1693.898699830588	192.0065309262858	924.3857130084775	1748.778480359864	240.1625710244819	859.7968520901275	1718.062346763505	264.6978904766221	896.9627229365352	1848.333194426104	595.5746132827775	795.6642593562835	1785.306794325477	589.5822604448451	828.6676365187734	1824.653249136287	701.1063697161601	774.8092890203468	1764.48963392942	695.9736404552398	807.1240468753163	1900.292509327848	921.095589345724	1075.584761296888	1623.493808145221	255.2361217182179	1086.497762385705	1540.256442489565	410.8893209641162	1024.331824474508	1558.957012022936	399.9825926223021	1075.808064350039	1584.918919056851	412.0879051484253	1029.56437850874	1852.02416900848	990.7161517353895	1126.44265848715	1595.932852207677	205.335662300352	1043.807923851713	1573.729235628752	253.2499948262003	1143.294828404339	1716.413883734354	975.9677568994116	1021.815458787959	1684.747624265651	407.0964267634214	1098.792299178532	1683.532668866502	426.9491577610187	1051.594478818264	1763.505588629086	438.1357778314372	1107.311168521921	1756.616562871269	460.6318666354989	1059.705893421904	1941.16326365773	594.0916614739054	1133.650348574547	1884.551690135615	564.1597051250699	1097.783084146595	1883.22915387797	686.7050686166822	1141.934624137984	1829.645821895092	658.0896553520774	1106.380110625969	
3379	22.52	1882.897610358302	947.0462602808644	857.7177521120628	1605.198630622635	45.96448967601845	982.672264019795	1622.800235517337	61.25474775439167	930.0036879790371	1618.342994302201	91.32259571394931	975.5955066893466	1811.164032647963	1023.216766937922	811.6745177012215	1822.48942340583	41.91986277470118	964.5477735012478	1760.946289285631	35.40457270077215	864.9123814837621	1710.123802707745	989.7579461853891	943.1355860178491	1709.859115900843	169.2254341477265	885.4034877107929	1678.590615351353	194.0715122456391	924.219515287036	1734.124086606244	241.6973014457994	859.7079658219479	1703.652202085339	266.5325914317217	896.934815363957	1840.119808124284	596.1012664800749	796.1103070359383	1776.809730890996	591.6314108155603	828.8494063215855	1819.099981885274	702.1903170196907	775.2520154889971	1758.666307800495	698.5145337235534	807.3392704349093	1897.959819052452	924.3767849061447	1077.283241137995	1644.318299262168	248.0758615772925	1085.31865746848	1552.653043507337	400.8036055451964	1027.047440790585	1572.549871543183	389.8630610707839	1078.154738008874	1597.310068215004	404.1611305861733	1031.900300006789	1847.674683818873	994.1118412650669	1127.50170911927	1618.527977217271	197.7820520651556	1041.620955859531	1595.119795467265	242.6773127038444	1142.462877909425	1714.816478139229	978.8014558540414	1020.860501054571	1698.579295838956	402.3975250248382	1099.473723299317	1695.813822669201	422.9028425813747	1052.65188247482	1776.049553507791	436.644366440673	1107.549894506411	1767.411081471643	459.5723768576632	1060.397224887271	1948.285899447067	600.9193047004924	1132.342194539208	1892.476861212737	569.2355052092519	1096.631978244478	1887.215084105596	691.3962870634792	1141.33765049624	1834.231150531577	660.987403401081	1106.256353258123	
